<svg xmlns="http://www.w3.org/2000/svg" width="375" viewBox="0 0 375 337.5" height="337.5" version="1.0"><defs><clipPath id="a"><path d="M 0.277344 169 L 58 169 L 58 326 L 0.277344 326 Z M 0.277344 169"/></clipPath><clipPath id="b"><path d="M 121 2.808594 L 372 2.808594 L 372 235 L 121 235 Z M 121 2.808594"/></clipPath><clipPath id="c"><path d="M 69 179 L 372 179 L 372 334.566406 L 69 334.566406 Z M 69 179"/></clipPath></defs><g clip-path="url(#a)"><path fill="#FFF" d="M 44.589844 169.191406 L 13.960938 169.191406 C 6.683594 169.191406 0.78125 175.097656 0.78125 182.386719 L 0.78125 311.820312 C 0.78125 319.109375 6.683594 325.015625 13.960938 325.015625 L 44.589844 325.015625 C 51.871094 325.015625 57.769531 319.109375 57.769531 311.820312 L 57.769531 182.386719 C 57.894531 175.097656 51.871094 169.191406 44.589844 169.191406 Z M 44.589844 169.191406"/></g><g clip-path="url(#b)"><path fill="#FFF" d="M 138.484375 171.828125 C 151.160156 176.730469 165.597656 185.402344 178.398438 193.191406 C 183.421875 196.207031 192.457031 201.738281 196.097656 203.371094 L 252.207031 203.371094 C 268.273438 203.371094 277.941406 209.78125 283.210938 215.183594 C 288.484375 220.460938 291.875 227.246094 293.128906 234.789062 C 302.292969 230.640625 313.085938 226.117188 324.886719 221.59375 C 327.019531 220.714844 329.152344 220.085938 331.289062 219.457031 C 338.945312 212.292969 345.722656 204.25 351.371094 195.453125 C 364.300781 175.347656 371.078125 151.972656 371.078125 127.972656 C 371.078125 103.96875 364.300781 80.59375 351.371094 60.363281 C 338.820312 40.757812 321.121094 25.050781 300.03125 14.996094 C 291.371094 10.851562 282.332031 7.710938 273.042969 5.699219 C 264.257812 3.8125 255.09375 2.808594 246.058594 2.808594 C 177.144531 2.808594 121.035156 58.980469 121.035156 127.972656 C 121.035156 142.171875 123.417969 156.121094 128.0625 169.316406 C 132.082031 169.820312 135.46875 170.699219 138.484375 171.828125 Z M 246.183594 133.5 C 228.609375 133.5 214.300781 119.175781 214.300781 101.582031 C 214.300781 85.875 225.597656 72.929688 240.535156 70.164062 L 240.535156 58.226562 C 240.535156 55.085938 243.042969 52.570312 246.183594 52.570312 C 249.320312 52.570312 251.832031 55.085938 251.832031 58.226562 L 251.832031 70.164062 C 266.769531 72.804688 278.066406 85.875 278.066406 101.582031 C 278.066406 104.722656 275.554688 107.238281 272.417969 107.238281 C 269.277344 107.238281 266.769531 104.722656 266.769531 101.582031 C 266.769531 90.273438 257.480469 80.972656 246.183594 80.972656 C 234.886719 80.972656 225.597656 90.273438 225.597656 101.582031 C 225.597656 112.890625 234.886719 122.191406 246.183594 122.191406 C 263.757812 122.191406 278.066406 136.515625 278.066406 154.109375 C 278.066406 169.820312 266.769531 182.761719 251.832031 185.527344 L 251.832031 197.464844 C 251.832031 200.605469 249.320312 203.121094 246.183594 203.121094 C 243.042969 203.121094 240.535156 200.605469 240.535156 197.464844 L 240.535156 185.527344 C 225.597656 182.886719 214.300781 169.820312 214.300781 154.109375 C 214.300781 150.96875 216.808594 148.457031 219.949219 148.457031 C 223.085938 148.457031 225.597656 150.96875 225.597656 154.109375 C 225.597656 165.421875 234.886719 174.71875 246.183594 174.71875 C 257.480469 174.71875 266.769531 165.421875 266.769531 154.109375 C 266.769531 142.800781 257.480469 133.5 246.183594 133.5 Z M 246.183594 133.5"/></g><g clip-path="url(#c)"><path fill="#FFF" d="M 353.128906 278.769531 C 369.449219 271.105469 374.21875 253.761719 369.195312 242.078125 C 369.070312 241.699219 368.820312 241.195312 368.570312 240.820312 C 368.570312 240.695312 368.441406 240.570312 368.441406 240.441406 C 368.316406 240.066406 368.066406 239.816406 367.941406 239.4375 C 367.941406 239.3125 367.816406 239.3125 367.816406 239.1875 C 367.566406 238.808594 367.3125 238.433594 367.0625 238.054688 C 367.0625 237.929688 366.9375 237.929688 366.9375 237.804688 C 366.6875 237.550781 366.433594 237.175781 366.308594 236.925781 C 366.183594 236.796875 366.183594 236.671875 366.058594 236.671875 C 365.808594 236.296875 365.429688 235.917969 365.179688 235.667969 C 364.929688 235.289062 364.550781 235.039062 364.175781 234.664062 C 364.050781 234.535156 363.925781 234.535156 363.925781 234.410156 C 363.671875 234.160156 363.296875 233.910156 363.046875 233.65625 C 362.921875 233.65625 362.921875 233.53125 362.792969 233.53125 C 362.417969 233.28125 362.042969 232.902344 361.539062 232.652344 C 361.414062 232.527344 361.289062 232.527344 361.289062 232.527344 C 360.910156 232.273438 360.660156 232.148438 360.285156 231.898438 C 360.160156 231.773438 360.03125 231.773438 359.90625 231.644531 C 359.40625 231.394531 359.027344 231.144531 358.527344 230.890625 C 358.527344 230.890625 358.402344 230.890625 358.402344 230.890625 C 358.023438 230.640625 357.523438 230.515625 357.019531 230.390625 C 356.894531 230.390625 356.769531 230.265625 356.644531 230.265625 C 356.140625 230.136719 355.765625 230.011719 355.261719 229.761719 C 355.136719 229.761719 355.136719 229.761719 355.011719 229.636719 C 354.511719 229.511719 353.882812 229.382812 353.378906 229.257812 C 353.253906 229.257812 353.128906 229.257812 353.003906 229.132812 C 352.5 229.007812 352.125 229.007812 351.621094 228.882812 C 351.496094 228.882812 351.371094 228.882812 351.121094 228.757812 C 350.492188 228.628906 349.867188 228.628906 349.238281 228.628906 C 349.113281 228.628906 348.988281 228.628906 348.988281 228.628906 C 348.484375 228.628906 347.855469 228.628906 347.355469 228.628906 C 347.105469 228.628906 346.976562 228.628906 346.726562 228.628906 C 346.351562 228.628906 345.972656 228.628906 345.597656 228.628906 C 345.347656 228.628906 345.09375 228.628906 344.96875 228.628906 C 344.46875 228.628906 344.089844 228.757812 343.589844 228.757812 C 343.464844 228.757812 343.210938 228.757812 343.085938 228.757812 C 342.460938 228.882812 341.832031 228.882812 341.078125 229.007812 C 340.953125 229.007812 340.828125 229.007812 340.703125 229.132812 C 340.199219 229.257812 339.699219 229.257812 339.070312 229.382812 C 338.820312 229.382812 338.570312 229.511719 338.316406 229.511719 C 337.816406 229.636719 337.4375 229.761719 336.9375 229.761719 C 336.683594 229.886719 336.433594 229.886719 336.058594 230.011719 C 335.554688 230.136719 335.179688 230.265625 334.675781 230.390625 C 334.425781 230.515625 334.175781 230.515625 333.796875 230.640625 C 333.296875 230.765625 332.792969 231.019531 332.292969 231.144531 C 332.042969 231.269531 331.789062 231.269531 331.539062 231.394531 C 330.785156 231.644531 330.03125 231.898438 329.152344 232.273438 C 309.445312 239.816406 292.753906 247.480469 280.449219 253.261719 C 280.828125 252.382812 281.078125 251.5 281.328125 250.621094 C 281.582031 249.742188 281.832031 248.863281 281.957031 247.855469 C 282.332031 245.847656 282.585938 243.710938 282.585938 241.699219 C 282.585938 228.378906 273.171875 214.808594 252.332031 214.808594 L 194.339844 214.808594 C 191.453125 214.304688 181.035156 208.019531 172.75 202.996094 C 160.324219 195.582031 146.265625 187.035156 134.589844 182.511719 C 134.089844 182.257812 133.460938 182.132812 132.960938 182.007812 C 132.457031 181.882812 131.957031 181.757812 131.453125 181.632812 C 131.078125 181.503906 130.699219 181.378906 130.324219 181.378906 C 129.945312 181.253906 129.570312 181.253906 129.195312 181.128906 C 128.691406 181.003906 128.316406 180.878906 127.8125 180.878906 C 127.3125 180.75 126.683594 180.625 126.179688 180.625 C 125.804688 180.625 125.429688 180.5 125.050781 180.5 C 124.675781 180.5 124.171875 180.375 123.796875 180.375 C 123.167969 180.25 122.414062 180.25 121.789062 180.125 C 121.285156 180.125 120.910156 179.996094 120.40625 179.996094 C 120.03125 179.996094 119.527344 179.871094 119.152344 179.871094 C 118.523438 179.871094 117.898438 179.746094 117.269531 179.746094 C 116.765625 179.746094 116.140625 179.746094 115.511719 179.621094 C 115.007812 179.621094 114.507812 179.621094 114.132812 179.621094 C 113.628906 179.621094 113.253906 179.621094 112.75 179.621094 C 111.117188 179.621094 109.359375 179.621094 107.605469 179.621094 C 107.476562 179.621094 107.351562 179.621094 107.226562 179.621094 C 106.597656 179.621094 105.972656 179.621094 105.34375 179.746094 C 105.21875 179.746094 104.96875 179.746094 104.84375 179.746094 C 104.214844 179.746094 103.585938 179.746094 102.960938 179.871094 C 102.960938 179.871094 102.832031 179.871094 102.832031 179.871094 C 100.824219 179.996094 98.816406 180.125 96.683594 180.25 C 96.433594 180.25 96.179688 180.25 95.929688 180.25 C 95.429688 180.25 94.800781 180.375 94.296875 180.375 C 94.046875 180.375 93.796875 180.375 93.546875 180.5 C 93.042969 180.5 92.414062 180.625 91.914062 180.625 C 91.660156 180.625 91.410156 180.625 91.160156 180.75 C 90.15625 180.878906 89.152344 181.003906 88.273438 181.128906 C 88.023438 181.128906 87.644531 181.253906 87.394531 181.253906 C 86.890625 181.253906 86.515625 181.378906 86.011719 181.378906 C 85.636719 181.378906 85.261719 181.503906 84.882812 181.503906 C 84.507812 181.503906 84.003906 181.632812 83.628906 181.632812 C 83.253906 181.632812 82.875 181.757812 82.375 181.757812 C 81.996094 181.757812 81.621094 181.882812 81.242188 181.882812 C 80.742188 182.007812 80.113281 182.007812 79.613281 182.132812 C 79.234375 182.132812 78.859375 182.257812 78.480469 182.257812 C 77.855469 182.386719 77.351562 182.386719 76.726562 182.511719 C 76.472656 182.511719 76.097656 182.636719 75.847656 182.636719 C 75.34375 182.761719 74.84375 182.761719 74.339844 182.886719 C 74.089844 182.886719 73.835938 183.011719 73.460938 183.011719 C 72.960938 183.140625 72.457031 183.140625 71.953125 183.265625 C 71.703125 183.265625 71.453125 183.390625 71.203125 183.390625 C 70.449219 183.515625 69.820312 183.640625 69.066406 183.769531 L 69.066406 311.066406 C 96.683594 317.097656 147.769531 328.410156 162.960938 331.929688 C 169.863281 333.5625 179.78125 334.566406 191.078125 334.566406 C 213.921875 334.566406 242.667969 330.421875 266.015625 319.109375 C 286.097656 309.308594 305.554688 300.511719 322.753906 292.847656 C 333.671875 287.695312 343.839844 283.167969 353.128906 278.769531 Z M 353.128906 278.769531"/></g></svg>