<svg xmlns="http://www.w3.org/2000/svg" width="1190.25" viewBox="0 0 1190.25 1683.75" height="1683.75" version="1.0"><defs><clipPath id="a"><path d="M 55.210938 842 L 129 842 L 129 1041 L 55.210938 1041 Z M 55.210938 842"/></clipPath><clipPath id="b"><path d="M 208 631.433594 L 527 631.433594 L 527 927 L 208 927 Z M 208 631.433594"/></clipPath><clipPath id="c"><path d="M 142 856 L 527 856 L 527 1052.84375 L 142 1052.84375 Z M 142 856"/></clipPath></defs><g clip-path="url(#a)"><path fill="#FFF" d="M 111.558594 842.777344 L 72.613281 842.777344 C 63.355469 842.777344 55.851562 850.28125 55.851562 859.539062 L 55.851562 1023.953125 C 55.851562 1033.210938 63.355469 1040.714844 72.613281 1040.714844 L 111.558594 1040.714844 C 120.820312 1040.714844 128.320312 1033.210938 128.320312 1023.953125 L 128.320312 859.539062 C 128.480469 850.28125 120.820312 842.777344 111.558594 842.777344 Z M 111.558594 842.777344"/></g><g clip-path="url(#b)"><path fill="#FFF" d="M 230.957031 846.128906 C 247.078125 852.355469 265.433594 863.371094 281.714844 873.265625 C 288.101562 877.097656 299.59375 884.121094 304.222656 886.195312 L 375.570312 886.195312 C 396.003906 886.195312 408.292969 894.335938 414.996094 901.203125 C 421.703125 907.90625 426.011719 916.527344 427.605469 926.101562 C 439.257812 920.835938 452.988281 915.089844 467.992188 909.34375 C 470.703125 908.226562 473.417969 907.425781 476.132812 906.628906 C 485.867188 897.53125 494.488281 887.3125 501.671875 876.140625 C 518.109375 850.601562 526.730469 820.910156 526.730469 790.421875 C 526.730469 759.933594 518.113281 730.242188 501.671875 704.542969 C 485.707031 679.640625 463.203125 659.6875 436.386719 646.917969 C 425.371094 641.648438 413.878906 637.660156 402.066406 635.105469 C 390.894531 632.710938 379.242188 631.433594 367.75 631.433594 C 280.117188 631.433594 208.769531 702.785156 208.769531 790.421875 C 208.769531 808.457031 211.800781 826.175781 217.707031 842.9375 C 222.816406 843.578125 227.125 844.695312 230.957031 846.128906 Z M 367.910156 797.445312 C 345.5625 797.445312 327.367188 779.246094 327.367188 756.898438 C 327.367188 736.945312 341.730469 720.503906 360.726562 716.992188 L 360.726562 701.828125 C 360.726562 697.839844 363.917969 694.644531 367.910156 694.644531 C 371.898438 694.644531 375.09375 697.839844 375.09375 701.828125 L 375.09375 716.992188 C 394.085938 720.347656 408.453125 736.945312 408.453125 756.898438 C 408.453125 760.890625 405.261719 764.082031 401.269531 764.082031 C 397.28125 764.082031 394.085938 760.890625 394.085938 756.898438 C 394.085938 742.535156 382.273438 730.722656 367.910156 730.722656 C 353.542969 730.722656 341.730469 742.535156 341.730469 756.898438 C 341.730469 771.265625 353.542969 783.078125 367.910156 783.078125 C 390.257812 783.078125 408.453125 801.277344 408.453125 823.625 C 408.453125 843.578125 394.085938 860.019531 375.09375 863.53125 L 375.09375 878.695312 C 375.09375 882.683594 371.898438 885.878906 367.910156 885.878906 C 363.917969 885.878906 360.726562 882.683594 360.726562 878.695312 L 360.726562 863.53125 C 341.730469 860.175781 327.367188 843.578125 327.367188 823.625 C 327.367188 819.632812 330.558594 816.441406 334.550781 816.441406 C 338.539062 816.441406 341.730469 819.632812 341.730469 823.625 C 341.730469 837.988281 353.542969 849.800781 367.910156 849.800781 C 382.273438 849.800781 394.085938 837.988281 394.085938 823.625 C 394.085938 809.257812 382.273438 797.445312 367.910156 797.445312 Z M 367.910156 797.445312"/></g><g clip-path="url(#c)"><path fill="#FFF" d="M 503.90625 981.972656 C 524.65625 972.234375 530.722656 950.207031 524.335938 935.359375 C 524.175781 934.882812 523.859375 934.242188 523.539062 933.765625 C 523.539062 933.605469 523.378906 933.445312 523.378906 933.285156 C 523.21875 932.808594 522.898438 932.488281 522.738281 932.007812 C 522.738281 931.847656 522.582031 931.847656 522.582031 931.691406 C 522.261719 931.210938 521.941406 930.730469 521.621094 930.253906 C 521.621094 930.09375 521.464844 930.09375 521.464844 929.933594 C 521.144531 929.613281 520.824219 929.136719 520.664062 928.816406 C 520.503906 928.65625 520.503906 928.496094 520.347656 928.496094 C 520.027344 928.019531 519.546875 927.539062 519.230469 927.21875 C 518.910156 926.742188 518.429688 926.421875 517.953125 925.941406 C 517.792969 925.785156 517.632812 925.785156 517.632812 925.625 C 517.3125 925.304688 516.835938 924.984375 516.515625 924.667969 C 516.355469 924.667969 516.355469 924.507812 516.195312 924.507812 C 515.71875 924.1875 515.238281 923.707031 514.597656 923.390625 C 514.441406 923.230469 514.28125 923.230469 514.28125 923.230469 C 513.800781 922.910156 513.480469 922.75 513.003906 922.429688 C 512.84375 922.273438 512.683594 922.273438 512.523438 922.113281 C 511.886719 921.792969 511.40625 921.472656 510.769531 921.15625 C 510.769531 921.15625 510.609375 921.15625 510.609375 921.15625 C 510.128906 920.835938 509.492188 920.675781 508.851562 920.515625 C 508.695312 920.515625 508.535156 920.355469 508.375 920.355469 C 507.734375 920.195312 507.257812 920.035156 506.617188 919.71875 C 506.457031 919.71875 506.457031 919.71875 506.300781 919.558594 C 505.660156 919.398438 504.863281 919.238281 504.222656 919.078125 C 504.066406 919.078125 503.90625 919.078125 503.746094 918.917969 C 503.105469 918.761719 502.628906 918.761719 501.988281 918.601562 C 501.828125 918.601562 501.671875 918.601562 501.351562 918.441406 C 500.554688 918.28125 499.753906 918.28125 498.957031 918.28125 C 498.796875 918.28125 498.636719 918.28125 498.636719 918.28125 C 498 918.28125 497.199219 918.28125 496.5625 918.28125 C 496.242188 918.28125 496.082031 918.28125 495.765625 918.28125 C 495.285156 918.28125 494.808594 918.28125 494.328125 918.28125 C 494.007812 918.28125 493.6875 918.28125 493.53125 918.28125 C 492.890625 918.28125 492.414062 918.441406 491.773438 918.441406 C 491.613281 918.441406 491.296875 918.441406 491.136719 918.441406 C 490.335938 918.601562 489.539062 918.601562 488.582031 918.761719 C 488.421875 918.761719 488.261719 918.761719 488.101562 918.917969 C 487.464844 919.078125 486.824219 919.078125 486.027344 919.238281 C 485.707031 919.238281 485.390625 919.398438 485.070312 919.398438 C 484.429688 919.558594 483.953125 919.71875 483.3125 919.71875 C 482.996094 919.878906 482.675781 919.878906 482.195312 920.039062 C 481.558594 920.195312 481.078125 920.355469 480.441406 920.515625 C 480.121094 920.675781 479.800781 920.675781 479.324219 920.835938 C 478.683594 920.996094 478.046875 921.3125 477.40625 921.472656 C 477.089844 921.632812 476.769531 921.632812 476.449219 921.792969 C 475.492188 922.113281 474.535156 922.429688 473.417969 922.910156 C 448.355469 932.488281 427.128906 942.226562 411.484375 949.566406 C 411.964844 948.449219 412.285156 947.332031 412.601562 946.214844 C 412.921875 945.097656 413.242188 943.980469 413.402344 942.703125 C 413.878906 940.148438 414.199219 937.4375 414.199219 934.882812 C 414.199219 917.960938 402.226562 900.722656 375.730469 900.722656 L 301.988281 900.722656 C 298.316406 900.085938 285.066406 892.101562 274.53125 885.71875 C 258.730469 876.300781 240.851562 865.445312 226.007812 859.699219 C 225.367188 859.378906 224.570312 859.21875 223.933594 859.058594 C 223.292969 858.902344 222.65625 858.742188 222.015625 858.582031 C 221.539062 858.421875 221.058594 858.261719 220.582031 858.261719 C 220.101562 858.101562 219.621094 858.101562 219.144531 857.941406 C 218.503906 857.785156 218.027344 857.625 217.386719 857.625 C 216.75 857.464844 215.953125 857.304688 215.3125 857.304688 C 214.835938 857.304688 214.355469 857.144531 213.875 857.144531 C 213.398438 857.144531 212.757812 856.984375 212.28125 856.984375 C 211.480469 856.824219 210.523438 856.824219 209.726562 856.664062 C 209.089844 856.664062 208.609375 856.507812 207.96875 856.507812 C 207.492188 856.507812 206.851562 856.347656 206.375 856.347656 C 205.578125 856.347656 204.777344 856.1875 203.980469 856.1875 C 203.339844 856.1875 202.542969 856.1875 201.746094 856.027344 C 201.105469 856.027344 200.46875 856.027344 199.988281 856.027344 C 199.351562 856.027344 198.871094 856.027344 198.234375 856.027344 C 196.160156 856.027344 193.925781 856.027344 191.6875 856.027344 C 191.53125 856.027344 191.371094 856.027344 191.210938 856.027344 C 190.414062 856.027344 189.613281 856.027344 188.816406 856.1875 C 188.65625 856.1875 188.335938 856.1875 188.175781 856.1875 C 187.378906 856.1875 186.582031 856.1875 185.785156 856.347656 C 185.785156 856.347656 185.625 856.347656 185.625 856.347656 C 183.070312 856.507812 180.515625 856.664062 177.800781 856.824219 C 177.484375 856.824219 177.164062 856.824219 176.84375 856.824219 C 176.207031 856.824219 175.40625 856.984375 174.769531 856.984375 C 174.449219 856.984375 174.132812 856.984375 173.8125 857.144531 C 173.171875 857.144531 172.375 857.304688 171.738281 857.304688 C 171.417969 857.304688 171.097656 857.304688 170.777344 857.464844 C 169.503906 857.625 168.226562 857.785156 167.109375 857.941406 C 166.789062 857.941406 166.308594 858.101562 165.992188 858.101562 C 165.351562 858.101562 164.875 858.261719 164.234375 858.261719 C 163.757812 858.261719 163.277344 858.421875 162.796875 858.421875 C 162.320312 858.421875 161.679688 858.582031 161.203125 858.582031 C 160.722656 858.582031 160.246094 858.742188 159.605469 858.742188 C 159.125 858.742188 158.648438 858.902344 158.167969 858.902344 C 157.53125 859.058594 156.734375 859.058594 156.09375 859.21875 C 155.617188 859.21875 155.136719 859.378906 154.65625 859.378906 C 153.859375 859.539062 153.222656 859.539062 152.421875 859.699219 C 152.105469 859.699219 151.625 859.859375 151.304688 859.859375 C 150.667969 860.019531 150.027344 860.019531 149.390625 860.175781 C 149.070312 860.175781 148.75 860.335938 148.273438 860.335938 C 147.632812 860.496094 146.996094 860.496094 146.359375 860.65625 C 146.039062 860.65625 145.71875 860.816406 145.398438 860.816406 C 144.441406 860.976562 143.644531 861.136719 142.6875 861.296875 L 142.6875 1022.996094 C 177.800781 1030.65625 242.765625 1045.023438 262.082031 1049.492188 C 270.859375 1051.570312 283.46875 1052.84375 297.835938 1052.84375 C 326.886719 1052.84375 363.441406 1047.578125 393.128906 1033.210938 C 418.667969 1020.761719 443.410156 1009.585938 465.277344 999.851562 C 479.164062 993.304688 492.09375 987.558594 503.90625 981.972656 Z M 503.90625 981.972656"/></g><g fill="#FFF"><g><g><path d="M 9 0 L 9 -84.21875 L 63.828125 -84.21875 L 63.828125 -68.625 L 29.515625 -68.625 L 29.515625 -50.5 L 55.1875 -50.5 L 55.1875 -34.90625 L 29.515625 -34.90625 L 29.515625 0 Z M 9 0" transform="translate(582.486 877.363)"/></g></g></g><g fill="#FFF"><g><g><path d="M 27.703125 -74.5 C 25.390625 -72.175781 22.550781 -71.015625 19.1875 -71.015625 C 15.832031 -71.015625 12.992188 -72.175781 10.671875 -74.5 C 8.359375 -76.820312 7.203125 -79.679688 7.203125 -83.078125 C 7.203125 -86.472656 8.359375 -89.332031 10.671875 -91.65625 C 12.992188 -93.976562 15.832031 -95.140625 19.1875 -95.140625 C 22.550781 -95.140625 25.390625 -93.976562 27.703125 -91.65625 C 30.023438 -89.332031 31.1875 -86.472656 31.1875 -83.078125 C 31.1875 -79.679688 30.023438 -76.820312 27.703125 -74.5 Z M 9 0 L 9 -66.9375 L 29.515625 -66.9375 L 29.515625 0 Z M 9 0" transform="translate(651.471 877.363)"/></g></g></g><g fill="#FFF"><g><g><path d="M 29.515625 -66.9375 L 29.515625 -57.109375 C 33.753906 -64.140625 40.507812 -67.65625 49.78125 -67.65625 C 57.457031 -67.65625 63.675781 -65.097656 68.4375 -59.984375 C 73.195312 -54.867188 75.578125 -47.910156 75.578125 -39.109375 L 75.578125 0 L 55.1875 0 L 55.1875 -36.34375 C 55.1875 -40.664062 54.046875 -44.003906 51.765625 -46.359375 C 49.484375 -48.722656 46.34375 -49.90625 42.34375 -49.90625 C 38.34375 -49.90625 35.203125 -48.722656 32.921875 -46.359375 C 30.648438 -44.003906 29.515625 -40.664062 29.515625 -36.34375 L 29.515625 0 L 9 0 L 9 -66.9375 Z M 29.515625 -66.9375" transform="translate(689.983 877.363)"/></g></g></g><g fill="#FFF"><g><g><path d="M 49.78125 -21.234375 C 52.738281 -24.109375 54.21875 -28.1875 54.21875 -33.46875 C 54.21875 -38.75 52.738281 -42.804688 49.78125 -45.640625 C 46.820312 -48.484375 43.421875 -49.90625 39.578125 -49.90625 C 35.742188 -49.90625 32.347656 -48.460938 29.390625 -45.578125 C 26.429688 -42.703125 24.953125 -38.625 24.953125 -33.34375 C 24.953125 -28.070312 26.429688 -24.015625 29.390625 -21.171875 C 32.347656 -18.335938 35.742188 -16.921875 39.578125 -16.921875 C 43.421875 -16.921875 46.820312 -18.359375 49.78125 -21.234375 Z M 12.953125 -8.75 C 7.035156 -15.15625 4.078125 -23.351562 4.078125 -33.34375 C 4.078125 -43.34375 7.035156 -51.5625 12.953125 -58 C 18.867188 -64.4375 26.085938 -67.65625 34.609375 -67.65625 C 43.128906 -67.65625 49.664062 -64.5 54.21875 -58.1875 L 54.21875 -66.9375 L 74.734375 -66.9375 L 74.734375 0 L 54.21875 0 L 54.21875 -9.71875 C 49.257812 -2.675781 42.617188 0.84375 34.296875 0.84375 C 25.984375 0.84375 18.867188 -2.351562 12.953125 -8.75 Z M 12.953125 -8.75" transform="translate(773.966 877.363)"/></g></g></g><g fill="#FFF"><g><g><path d="M 29.515625 -66.9375 L 29.515625 -57.109375 C 33.753906 -64.140625 40.507812 -67.65625 49.78125 -67.65625 C 57.457031 -67.65625 63.675781 -65.097656 68.4375 -59.984375 C 73.195312 -54.867188 75.578125 -47.910156 75.578125 -39.109375 L 75.578125 0 L 55.1875 0 L 55.1875 -36.34375 C 55.1875 -40.664062 54.046875 -44.003906 51.765625 -46.359375 C 49.484375 -48.722656 46.34375 -49.90625 42.34375 -49.90625 C 38.34375 -49.90625 35.203125 -48.722656 32.921875 -46.359375 C 30.648438 -44.003906 29.515625 -40.664062 29.515625 -36.34375 L 29.515625 0 L 9 0 L 9 -66.9375 Z M 29.515625 -66.9375" transform="translate(857.708 877.363)"/></g></g></g><g fill="#FFF"><g><g><path d="M 13.375 -8.515625 C 7.175781 -14.753906 4.078125 -23.070312 4.078125 -33.46875 C 4.078125 -43.863281 7.175781 -52.160156 13.375 -58.359375 C 19.570312 -64.554688 27.59375 -67.65625 37.4375 -67.65625 C 45.59375 -67.65625 52.507812 -65.632812 58.1875 -61.59375 C 63.863281 -57.5625 67.625 -51.785156 69.46875 -44.265625 L 47.265625 -44.265625 C 45.347656 -48.265625 42.207031 -50.265625 37.84375 -50.265625 C 33.488281 -50.265625 30.25 -48.722656 28.125 -45.640625 C 26.007812 -42.566406 24.953125 -38.507812 24.953125 -33.46875 C 24.953125 -28.425781 26.007812 -24.363281 28.125 -21.28125 C 30.25 -18.207031 33.351562 -16.671875 37.4375 -16.671875 C 39.988281 -16.671875 41.984375 -17.109375 43.421875 -17.984375 C 44.867188 -18.867188 46.148438 -20.429688 47.265625 -22.671875 L 69.46875 -22.671875 C 67.625 -15.472656 63.820312 -9.753906 58.0625 -5.515625 C 52.300781 -1.273438 45.425781 0.84375 37.4375 0.84375 C 27.59375 0.84375 19.570312 -2.273438 13.375 -8.515625 Z M 13.375 -8.515625" transform="translate(941.69 877.363)"/></g></g></g><g fill="#FFF"><g><g><path d="M 37.4375 0.84375 C 27.675781 0.84375 19.675781 -2.296875 13.4375 -8.578125 C 7.195312 -14.859375 4.078125 -23.195312 4.078125 -33.59375 C 4.078125 -43.988281 7.175781 -52.265625 13.375 -58.421875 C 19.570312 -64.578125 27.585938 -67.65625 37.421875 -67.65625 C 47.265625 -67.65625 55.425781 -64.613281 61.90625 -58.53125 C 68.382812 -52.457031 71.625 -44.023438 71.625 -33.234375 C 71.625 -30.910156 71.460938 -28.75 71.140625 -26.75 L 25.078125 -26.75 C 25.472656 -23.789062 26.789062 -21.367188 29.03125 -19.484375 C 31.269531 -17.609375 33.6875 -16.671875 36.28125 -16.671875 C 38.882812 -16.671875 40.828125 -16.929688 42.109375 -17.453125 C 43.390625 -17.972656 44.328125 -18.492188 44.921875 -19.015625 C 45.523438 -19.535156 46.304688 -20.394531 47.265625 -21.59375 L 69.46875 -21.59375 C 67.539062 -14.875 63.695312 -9.453125 57.9375 -5.328125 C 52.1875 -1.210938 45.351562 0.84375 37.4375 0.84375 Z M 50.265625 -39.59375 C 49.941406 -42.707031 48.582031 -45.242188 46.1875 -47.203125 C 43.789062 -49.160156 40.953125 -50.140625 37.671875 -50.140625 C 34.390625 -50.140625 31.628906 -49.160156 29.390625 -47.203125 C 27.148438 -45.242188 25.75 -42.707031 25.1875 -39.59375 Z M 50.265625 -39.59375" transform="translate(1013.675 877.363)"/></g></g></g><g fill="#FFF"><g><g><path d="M 4.4375 -46.78125 C 4.4375 -52.707031 6.957031 -57.664062 12 -61.65625 C 17.039062 -65.65625 23.859375 -67.65625 32.453125 -67.65625 C 41.046875 -67.65625 47.984375 -65.695312 53.265625 -61.78125 C 58.546875 -57.863281 61.34375 -52.503906 61.65625 -45.703125 L 40.671875 -45.703125 C 40.429688 -48.023438 39.628906 -49.601562 38.265625 -50.4375 C 36.910156 -51.28125 34.875 -51.703125 32.15625 -51.703125 C 26.789062 -51.703125 24.109375 -50.0625 24.109375 -46.78125 C 24.109375 -43.820312 27.390625 -41.785156 33.953125 -40.671875 C 40.585938 -39.546875 46.625 -37.828125 52.0625 -35.515625 C 54.863281 -34.390625 57.203125 -32.523438 59.078125 -29.921875 C 60.960938 -27.328125 61.90625 -24.148438 61.90625 -20.390625 C 61.90625 -14.148438 59.222656 -9.050781 53.859375 -5.09375 C 48.503906 -1.132812 41.75 0.84375 33.59375 0.84375 C 25.4375 0.84375 18.632812 -1.015625 13.1875 -4.734375 C 7.75 -8.453125 4.789062 -13.953125 4.3125 -21.234375 L 25.3125 -21.234375 C 25.875 -17.148438 28.753906 -15.109375 33.953125 -15.109375 C 36.347656 -15.109375 38.328125 -15.664062 39.890625 -16.78125 C 41.453125 -17.90625 42.234375 -19.347656 42.234375 -21.109375 C 42.234375 -22.867188 40.929688 -24.269531 38.328125 -25.3125 C 35.734375 -26.351562 32.59375 -27.234375 28.90625 -27.953125 C 25.226562 -28.671875 21.53125 -29.566406 17.8125 -30.640625 C 14.09375 -31.722656 10.929688 -33.601562 8.328125 -36.28125 C 5.734375 -38.96875 4.4375 -42.46875 4.4375 -46.78125 Z M 4.4375 -46.78125" transform="translate(1089.5 877.363)"/></g></g></g></svg>